<svg width="385" height="80" viewBox="0 0 385 80" fill="none" xmlns="http://www.w3.org/2000/svg">
<path d="M192.58 0.0474576C256.165 0.0474576 319.754 0.0542373 383.342 0C384.866 0 385.003 0.457627 385 1.77966C384.96 27.339 384.967 52.8983 384.99 78.461C384.99 79.5254 384.97 80 383.606 80C256.209 79.9525 128.811 79.9525 1.41701 80C0.10026 80 0.0133681 79.5864 0.0133681 78.478C0.0467882 52.8034 0.0501302 27.1322 0 1.45763C0 0.162712 0.354253 0.020339 1.48385 0.020339C65.1826 0.0508475 128.881 0.0474576 192.58 0.0474576Z" fill="#FEFEFE"/>
<path d="M153.408 28.0408C152.483 37.1255 151.684 46.6238 150.407 56.0679C150.28 57.0103 150.003 57.9425 149.706 58.8509C147.874 64.4475 141.548 66.8747 136.501 63.8848C133.834 62.3018 132.975 59.5323 132.624 56.7187C131.876 50.6781 131.368 44.6069 130.76 38.5458C130.736 38.3221 130.76 38.0916 130.713 37.8713C130.643 37.5255 130.823 36.9526 130.238 36.9831C129.74 37.0103 129.764 37.5323 129.73 37.9153C129.466 40.8916 129.236 43.8713 128.945 46.8475C128.577 50.6069 128.39 54.3933 127.581 58.0916C126.997 60.7628 125.884 63.2204 123.16 64.2611C119.126 65.8035 112.937 65.278 110.962 59.4442C109.735 55.817 109.518 52.0374 109.117 48.2916C108.382 41.4509 107.76 34.6001 107.075 27.756C106.754 24.5526 107.67 23.4848 110.825 23.4509C114.778 23.4035 115.737 24.217 116.148 28.2577C116.967 36.278 117.716 44.3086 118.528 52.3289C118.611 53.1628 118.388 54.5119 119.534 54.5357C120.857 54.5628 120.553 53.1357 120.643 52.278C121.332 45.6035 121.95 38.9187 122.619 32.2408C122.742 31.0102 122.929 29.7797 123.203 28.573C123.771 26.0645 125.175 24.2441 127.762 23.7425C130.683 23.1764 133.604 23.0916 135.809 25.6238C137.186 27.2035 137.574 29.2204 137.771 31.2713C138.453 38.3458 139.151 45.417 139.843 52.4882C139.877 52.8238 139.927 53.1594 139.977 53.495C140.054 54.017 140.187 54.5492 140.812 54.5899C141.444 54.6306 141.668 54.1425 141.745 53.6069C141.955 52.1018 142.179 50.6001 142.33 49.0882C143.038 41.9628 143.713 34.8306 144.428 27.7052C144.809 23.8882 149.061 21.8984 152.286 23.9831C153.699 24.895 153.355 26.3187 153.408 28.0441V28.0408Z" fill="#181E4B"/>
<path d="M200.38 54.3796C202.399 47.2847 204.311 40.5864 206.216 33.8847C208.014 27.5559 209.781 21.2237 211.603 14.9017C212.709 11.0576 216.833 9.07795 220.553 10.5457C222.15 11.1763 222.752 12.7627 222.093 14.7932C220.603 19.3898 219.082 23.9763 217.572 28.5661C214.146 38.9762 210.721 49.3864 207.288 59.7932C206.206 63.0813 204.387 64.3932 200.969 64.4C200.41 64.4 199.856 64.4 199.298 64.4C196.407 64.3796 194.395 63.0339 193.476 60.261C188.429 45 183.42 29.7288 178.413 14.4576C177.812 12.6169 178.517 10.9559 180.198 10.539C182.217 10.0407 184.289 10.0034 186.23 10.9627C187.754 11.7152 188.71 12.939 189.185 14.6373C192.707 27.2576 196.266 39.8712 199.819 52.4847C199.956 52.9695 200.106 53.4508 200.384 54.3796H200.38Z" fill="#6B5CFE"/>
<path d="M338.773 48.027C335.602 48.027 332.427 48.0609 329.255 48.0067C328.269 47.9897 328.055 48.3118 328.136 49.2745C328.55 54.1999 331.641 57.3965 336.588 57.9558C339.666 58.3016 342.687 58.0169 345.688 57.2813C348.178 56.6711 349.605 57.2202 350.119 58.9016C350.701 60.8169 349.377 63.427 347.345 64.044C345.918 64.4779 344.421 64.7355 342.934 64.888C339.104 65.288 335.277 65.3558 331.491 64.4236C324.673 62.7457 320.412 58.4677 318.915 51.5185C317.879 46.7118 317.989 41.8711 319.256 37.1185C321.201 29.827 326.535 25.7287 334.609 25.1728C336.674 25.0304 338.733 25.1491 340.752 25.5897C347.586 27.0711 351.673 31.983 352.546 39.7016C352.673 40.8202 352.816 41.9423 352.856 43.0677C352.973 46.2067 351.429 47.8846 348.291 48.0169C346.901 48.0745 345.507 48.0304 344.117 48.0304C342.336 48.0304 340.554 48.0304 338.773 48.0304V48.027Z" fill="#181E4B"/>
<path d="M237.894 48.027C234.723 48.027 231.548 48.0609 228.376 48.0067C227.384 47.9897 227.167 48.3321 227.257 49.2846C227.731 54.2507 230.789 57.4033 235.719 57.9592C238.797 58.305 241.821 58.0202 244.822 57.2779C247.232 56.6846 248.779 57.2575 249.261 58.8948C249.822 60.8067 248.499 63.4338 246.483 64.0541C245.056 64.4914 243.552 64.7287 242.069 64.8846C238.239 65.288 234.415 65.3592 230.626 64.427C223.875 62.766 219.64 58.566 218.106 51.6779C217.034 46.8677 217.114 42.027 218.354 37.2745C220.302 29.8135 225.636 25.7016 233.757 25.1694C235.879 25.0304 237.991 25.1524 240.063 25.6236C246.724 27.1389 250.601 31.766 251.64 39.3796C251.794 40.4948 251.921 41.6202 251.964 42.7423C252.101 46.4338 250.617 47.9829 246.921 48.0168C243.917 48.044 240.909 48.0236 237.904 48.0236L237.894 48.027Z" fill="#181E4B"/>
<path d="M82.9788 28.7559C82.9922 33.2067 82.2201 37.4067 79.1355 40.8406C77.6817 42.4576 75.8971 43.627 73.8517 44.2677C72.4381 44.7118 72.4715 45.3084 73.1833 46.3931C76.3315 51.1728 79.4563 55.9694 82.5544 60.783C84.6698 64.0677 84.3223 64.7491 80.479 64.9253C79.2591 64.983 78.0326 64.8779 76.8094 64.8847C74.0422 64.9016 72.0537 63.5491 70.5833 61.2881C67.4585 56.4915 64.327 51.7016 61.2457 46.8745C60.6976 46.0169 60.0927 45.6237 59.0767 45.6745C58.024 45.7287 56.9646 45.5999 55.9085 45.5898C54.6318 45.5796 53.9768 44.8948 54.194 43.6745C54.6285 41.2304 55.4038 38.8711 56.4298 36.6169C56.8208 35.7592 57.6497 35.5457 58.542 35.5355C60.7678 35.5118 62.9969 35.5253 65.2193 35.4101C70.6668 35.1355 72.7556 32.5186 72.0036 27.0135C71.6059 24.1118 70.1354 22.5694 67.2747 22.1898C65.9546 22.0135 64.6111 22.0169 63.281 21.8847C61.8539 21.7423 61.2557 20.9796 61.6601 19.5898C62.3218 17.322 63.1105 15.0915 63.8658 12.8542C64.0797 12.2203 64.5275 11.8101 65.2327 11.8101C70.737 11.8033 75.9372 12.7186 79.707 17.3016C82.424 20.6033 82.9654 24.6203 82.9788 28.7559Z" fill="#181E4B"/>
<path d="M299.204 65.1424C296.61 65.1797 293.479 64.7221 290.367 64.0577C288.442 63.6441 287.213 62.5085 286.644 60.6136C285.799 57.8001 287.423 55.9526 290.24 56.6475C292.299 57.1526 294.361 57.573 296.463 57.8001C298.412 58.0102 300.353 58.0136 302.275 57.5797C304.27 57.1323 305.427 55.9967 305.64 54.3119C305.868 52.5458 304.975 51.0475 303.174 50.1119C301.222 49.0984 299.063 48.7594 296.985 48.173C295 47.6136 293.071 46.9119 291.25 45.9289C286.989 43.6272 285.181 40.0136 285.632 35.1831C286.083 30.3458 288.997 27.5458 293.302 26.217C299.207 24.3933 305.203 25.0001 311.138 26.1967C313.103 26.5933 314.453 29.0408 314.156 31.0814C313.902 32.8204 312.435 33.756 310.57 33.3492C306.8 32.5255 303.007 32.0035 299.15 32.5696C296.951 32.8916 295.641 34.017 295.437 35.634C295.2 37.4984 296.159 39.0848 298.181 39.9797C299.04 40.3594 299.959 40.6306 300.875 40.8374C303.532 41.4408 306.158 42.1221 308.698 43.1424C315.757 45.9763 316.402 52.9357 314.895 57.6814C313.685 61.4916 310.63 63.295 307.071 64.3458C304.705 65.0441 302.255 65.173 299.207 65.1424H299.204Z" fill="#181E4B"/>
<path d="M55.2501 8.8577C59.7719 8.89159 60.0927 9.43397 58.7693 13.8001C54.1005 29.2069 49.288 44.5662 44.3819 59.895C43.8839 61.4475 43.3759 63.0001 42.8078 64.5289C42.2597 65.9967 41.2203 66.9763 39.663 67.2611C38.0087 67.5628 36.3276 67.5763 34.67 67.3424C32.8753 67.0882 32.4208 66.1628 33.0157 64.1119C34.4361 59.1933 35.8297 54.2679 37.347 49.3763C41.0332 37.495 44.7762 25.634 48.5026 13.7662C49.826 9.54583 50.822 8.83058 55.2501 8.86109V8.8577Z" fill="#6B5CFE"/>
<path d="M266.018 33.444C269.229 29.3627 273.133 27.1966 277.731 26.2813C278.914 26.044 280.158 25.7389 281.287 26.5118C282.658 27.4508 283.329 28.7932 283.002 30.4372C282.668 32.1254 281.571 33.2169 279.877 33.5593C278.898 33.7593 277.888 33.8101 276.903 33.983C270.209 35.166 266.569 39.3728 266.405 46.305C266.302 50.7593 266.382 55.2169 266.372 59.6711C266.362 62.8576 264.751 64.3965 261.442 64.3999C257.91 64.4033 256.279 62.9627 256.276 59.7593C256.262 49.9999 256.266 40.244 256.276 30.4847C256.279 27.4508 257.987 25.8677 261.178 25.8745C264.303 25.8813 266.004 27.5355 266.018 30.5796C266.021 31.3999 266.018 32.2169 266.018 33.4372V33.444Z" fill="#181E4B"/>
<path d="M89.9936 43.9254C89.9936 38.2338 89.9836 32.5423 89.997 26.8508C90.0036 24.4643 90.8425 23.5728 93.1852 23.4915C94.5722 23.444 95.9658 23.4542 97.3561 23.5254C98.9669 23.6067 99.9261 24.4847 100.107 26.1389C100.173 26.7525 100.213 27.3762 100.213 27.9932C100.224 38.7559 100.227 49.522 100.224 60.2847C100.224 60.8474 100.2 61.4135 100.11 61.966C99.7623 64.1491 98.9836 64.8067 96.7311 64.8372C95.675 64.8508 94.619 64.844 93.5629 64.8304C90.7489 64.7898 90.017 64.0779 90.0036 61.1694C89.9736 55.4203 89.9936 49.6711 89.9936 43.9254Z" fill="#181E4B"/>
<path d="M20.1023 56.2135C15.888 54.0474 11.6771 51.8677 7.45275 49.7219C5.28379 48.6202 3.91356 47.1728 4.29121 44.4304C4.52849 42.7152 4.42823 40.9321 4.30792 39.1897C4.19763 37.5999 4.91951 36.5931 6.16942 35.9084C12.1884 32.6135 18.2508 29.4033 24.4502 26.4677C26.686 25.4101 27.9827 26.2575 28.1164 28.766C28.327 32.6169 28.2133 34.444 23.7818 36.4846C20.3897 38.0474 17.0878 39.8169 13.7558 41.5118C13.2946 41.7457 12.4825 41.7524 12.556 42.4406C12.6195 43.0169 13.3748 43.1152 13.8627 43.3626C17.6392 45.2914 21.4123 47.2236 25.1988 49.1287C27.1907 50.1321 28.1298 51.6508 28.1432 53.9728C28.1699 59.1457 27.4179 59.6948 22.8427 57.4982C22.3916 57.2813 21.9304 57.0914 21.4725 56.8914C21.0547 56.5863 20.5301 56.4982 20.1056 56.2101L20.1023 56.2135Z" fill="#6B5CFE"/>
<path d="M170.47 44.0711C170.47 49.7626 170.496 55.4508 170.46 61.1423C170.443 63.9321 169.654 64.705 166.88 64.9152C161.099 65.3559 160.36 64.6982 160.353 58.9389C160.337 48.4033 160.33 37.8677 160.353 27.3321C160.36 24.1999 161.005 23.5592 164.05 23.4779C165.216 23.4474 166.389 23.444 167.552 23.522C169.591 23.6575 170.363 24.4304 170.376 26.4914C170.413 32.3491 170.389 38.2101 170.389 44.0677C170.419 44.0677 170.446 44.0677 170.476 44.0677L170.47 44.0711Z" fill="#181E4B"/>
<path d="M372.34 44.3763C368.156 42.4306 363.952 40.5187 359.791 38.5255C357.074 37.2238 355.684 33.5661 356.686 30.7289C356.864 30.2238 357.168 29.9865 357.662 29.9831C359.711 29.9797 361.733 29.8204 363.681 30.8746C368.143 33.295 372.691 35.5424 377.173 37.9289C379.923 39.3933 381.511 41.5424 381.457 44.9356C381.404 48.2882 379.89 50.4848 377.096 51.9322C372.691 54.2136 368.253 56.4306 363.832 58.6848C361.766 59.739 359.567 59.1017 357.425 59.2136C357.027 59.2339 356.864 58.9017 356.854 58.5255C356.783 54.8645 356.449 52.8306 360.329 50.9594C364.089 49.1424 367.825 47.2746 371.572 45.4272C371.903 45.1356 372.865 45.3153 372.34 44.3797V44.3763Z" fill="#6B5CFE"/>
<path d="M165.771 17.2101C164.718 17.2101 163.662 17.244 162.612 17.1999C161.236 17.1423 160.507 16.366 160.808 14.9897C161.77 10.5965 163.03 8.85751 167.288 8.82362C172.161 8.78633 172.719 9.47785 171.288 14.1728C170.656 16.2473 168.816 17.2586 165.771 17.2067V17.2101Z" fill="#191F4B"/>
<path d="M372.341 44.3762C372.595 44.4576 372.939 44.5254 372.805 44.8881C372.595 45.4643 372.056 45.4169 371.572 45.427C371.819 45.0711 372.371 44.9423 372.341 44.3796V44.3762Z" fill="#6D64D0"/>
<path d="M20.1023 56.2136C20.6704 56.2136 21.1584 56.3695 21.4692 56.895C20.8944 56.9153 20.4231 56.7119 20.1023 56.2136Z" fill="#C7C3EB"/>
<path d="M335.759 41.5187C333.59 41.5187 331.421 41.4949 329.252 41.5322C328.41 41.5458 328.022 41.3254 328.142 40.3797C328.807 35.2136 331.09 31.5051 337.493 32.156C341.25 32.539 344.395 37.1288 343.566 40.8576C343.375 41.7085 342.774 41.5051 342.266 41.5119C340.097 41.5322 337.928 41.5221 335.759 41.5221V41.5187Z" fill="#FEFEFE"/>
<path d="M234.937 41.5187C232.771 41.5187 230.602 41.5085 228.437 41.5255C227.675 41.5322 227.127 41.4272 227.26 40.4204C227.925 35.3967 230.101 31.495 236.574 32.1492C240.137 32.5085 242.199 35.1085 242.644 39.4407C242.804 41.0238 242.476 41.6848 240.769 41.5526C238.834 41.4034 236.882 41.5187 234.937 41.5187Z" fill="#FEFEFE"/>
</svg>
