<svg viewBox="0 0 56.693 56.693" xml:space="preserve" xmlns="http://www.w3.org/2000/svg" enable-background="new 0 0 56.6934 56.6934"><path d="M28.46 4.015c-13.6 0-24.625 11.028-24.625 24.625 0 13.6 11.024 24.623 24.625 24.623 13.6 0 24.625-11.023 24.625-24.623 0-13.597-11.026-24.625-24.625-24.625zM42.608 33.88c-.697 2.402-2.014 4.637-3.86 6.333-1.746 1.612-3.933 2.717-6.245 3.249-2.557.582-5.262.597-7.803-.084a15.181 15.181 0 0 1-5.543-2.795 15.367 15.367 0 0 1-4.144-5.093 15.272 15.272 0 0 1-1.324-9.864 15.18 15.18 0 0 1 1.326-3.834c1.756-3.515 4.922-6.296 8.64-7.569 3.3-1.142 6.998-1.116 10.276.09 1.82.669 3.487 1.726 4.908 3.041-.475.517-.991.998-1.482 1.5-.936.935-1.869 1.873-2.807 2.805a8.267 8.267 0 0 0-3.289-1.932 9.033 9.033 0 0 0-4.478-.182 9.08 9.08 0 0 0-4.555 2.53 9.464 9.464 0 0 0-2.214 3.596 9.239 9.239 0 0 0-.003 5.94 9.478 9.478 0 0 0 3.496 4.684 8.961 8.961 0 0 0 3.396 1.466c1.198.243 2.439.216 3.64.012a8.72 8.72 0 0 0 3.358-1.327 7.166 7.166 0 0 0 3.054-4.711h-8.312c-.004-1.984 0-3.969-.001-5.953 4.784 0 9.57-.002 14.354 0 .477 2.682.372 5.479-.388 8.098z" fill="#ffffff" class="fill-000000"></path></svg>