<?xml version="1.0" encoding="UTF-8"?>
<svg id="Layer_2" data-name="Layer 2" xmlns="http://www.w3.org/2000/svg" viewBox="0 0 377.23 58.68">
  <defs>
    <style>
      .cls-1 {
        fill: #6d64d0;
      }

      .cls-1, .cls-2, .cls-3, .cls-4, .cls-5, .cls-6 {
        stroke-width: 0px;
      }

      .cls-2 {
        fill: #191f4b;
      }

      .cls-3 {
        fill: #c7c3eb;
      }

      .cls-4 {
        fill: #181e4b;
      }

      .cls-5 {
        fill: #fff;
      }

      .cls-6 {
        fill: #312f82;
      }
    </style>
  </defs>
  <g id="Layer_1-2" data-name="Layer 1">
    <path class="cls-4" d="M149.18,19.22c-.93,9.08-1.72,18.58-3,28.03-.13.94-.4,1.87-.7,2.78-1.83,5.6-8.16,8.02-13.2,5.03-2.67-1.58-3.53-4.35-3.88-7.17-.75-6.04-1.26-12.11-1.86-18.17-.02-.22,0-.45-.05-.67-.07-.35.11-.92-.47-.89-.5.03-.47.55-.51.93-.26,2.98-.49,5.96-.78,8.93-.37,3.76-.56,7.55-1.36,11.24-.58,2.67-1.7,5.13-4.42,6.17-4.03,1.54-10.22,1.02-12.2-4.82-1.23-3.63-1.44-7.41-1.85-11.15-.73-6.84-1.36-13.69-2.04-20.54-.32-3.2.6-4.27,3.75-4.31,3.95-.05,4.91.77,5.32,4.81.82,8.02,1.57,16.05,2.38,24.07.08.83-.14,2.18,1.01,2.21,1.32.03,1.02-1.4,1.11-2.26.69-6.67,1.31-13.36,1.98-20.04.12-1.23.31-2.46.58-3.67.57-2.51,1.97-4.33,4.56-4.83,2.92-.57,5.84-.65,8.05,1.88,1.38,1.58,1.76,3.6,1.96,5.65.68,7.07,1.38,14.15,2.07,21.22.03.34.08.67.13,1.01.08.52.21,1.05.83,1.09.63.04.86-.45.93-.98.21-1.51.43-3.01.59-4.52.71-7.13,1.38-14.26,2.1-21.38.38-3.82,4.63-5.81,7.86-3.72,1.41.91,1.07,2.34,1.12,4.06h0Z"/>
    <path class="cls-6" d="M196.15,45.56c2.02-7.09,3.93-13.79,5.84-20.49,1.8-6.33,3.57-12.66,5.39-18.98,1.11-3.84,5.23-5.82,8.95-4.36,1.6.63,2.2,2.22,1.54,4.25-1.49,4.6-3.01,9.18-4.52,13.77-3.43,10.41-6.85,20.82-10.28,31.23-1.08,3.29-2.9,4.6-6.32,4.61h-1.67c-2.89-.02-4.9-1.37-5.82-4.14-5.05-15.26-10.06-30.53-15.06-45.8-.6-1.84.1-3.5,1.79-3.92,2.02-.5,4.09-.54,6.03.42,1.52.75,2.48,1.98,2.96,3.67,3.52,12.62,7.08,25.23,10.63,37.85.14.48.29.97.57,1.89h0Z"/>
    <path class="cls-4" d="M334.54,39.2c-3.17,0-6.35.03-9.52-.02-.99-.02-1.2.31-1.12,1.27.41,4.93,3.51,8.12,8.45,8.68,3.08.35,6.1.06,9.1-.67,2.49-.61,3.92-.06,4.43,1.62.58,1.92-.74,4.53-2.77,5.14-1.43.43-2.92.69-4.41.84-3.83.4-7.66.47-11.44-.46-6.82-1.68-11.08-5.96-12.58-12.91-1.04-4.81-.93-9.65.34-14.4,1.94-7.29,7.28-11.39,15.35-11.95,2.07-.14,4.12-.02,6.14.42,6.83,1.48,10.92,6.39,11.79,14.11.13,1.12.27,2.24.31,3.37.12,3.14-1.43,4.82-4.57,4.95-1.39.06-2.78.01-4.17.01h-5.34Z"/>
    <path class="cls-4" d="M233.67,39.2c-3.17,0-6.35.03-9.52-.02-.99-.02-1.21.33-1.12,1.28.47,4.97,3.53,8.12,8.46,8.67,3.08.35,6.1.06,9.1-.68,2.41-.59,3.96-.02,4.44,1.62.56,1.91-.76,4.54-2.78,5.16-1.43.44-2.93.67-4.41.83-3.83.4-7.65.47-11.44-.46-6.75-1.66-10.99-5.86-12.52-12.75-1.07-4.81-.99-9.65.25-14.4,1.95-7.46,7.28-11.57,15.4-12.11,2.12-.14,4.23-.02,6.31.45,6.66,1.52,10.54,6.14,11.58,13.76.15,1.12.28,2.24.32,3.36.14,3.69-1.35,5.24-5.04,5.27-3,.03-6.01,0-9.02,0h-.01Z"/>
    <path class="cls-4" d="M78.75,19.93c.01,4.45-.76,8.65-3.84,12.08-1.45,1.62-3.24,2.79-5.28,3.43-1.41.44-1.38,1.04-.67,2.13,3.15,4.78,6.27,9.58,9.37,14.39,2.12,3.28,1.77,3.97-2.08,4.14-1.22.06-2.45-.05-3.67-.04-2.77.02-4.76-1.34-6.23-3.6-3.12-4.8-6.26-9.59-9.34-14.41-.55-.86-1.15-1.25-2.17-1.2-1.05.05-2.11-.07-3.17-.08-1.28-.01-1.93-.7-1.71-1.92.43-2.44,1.21-4.8,2.24-7.06.39-.86,1.22-1.07,2.11-1.08,2.23-.02,4.45-.01,6.68-.13,5.45-.27,7.54-2.89,6.78-8.4-.4-2.9-1.87-4.44-4.73-4.82-1.32-.18-2.66-.17-3.99-.31-1.43-.14-2.03-.91-1.62-2.29.66-2.27,1.45-4.5,2.21-6.74.21-.63.66-1.04,1.37-1.04,5.5,0,10.7.91,14.47,5.49,2.72,3.3,3.26,7.32,3.27,11.45Z"/>
    <path class="cls-4" d="M294.98,56.32c-2.59.04-5.73-.42-8.84-1.08-1.93-.41-3.15-1.55-3.72-3.44-.85-2.81.78-4.66,3.6-3.97,2.06.51,4.12.93,6.22,1.15,1.95.21,3.89.21,5.81-.22,1.99-.45,3.15-1.58,3.37-3.27.23-1.77-.67-3.26-2.47-4.2-1.95-1.01-4.11-1.35-6.19-1.94-1.98-.56-3.91-1.26-5.73-2.24-4.26-2.3-6.07-5.92-5.62-10.75.45-4.84,3.37-7.64,7.67-8.97,5.9-1.82,11.9-1.22,17.84-.02,1.96.4,3.32,2.84,3.02,4.88-.25,1.74-1.72,2.67-3.59,2.27-3.77-.82-7.56-1.35-11.42-.78-2.2.32-3.51,1.45-3.71,3.06-.24,1.86.72,3.45,2.74,4.35.86.38,1.78.65,2.69.86,2.66.6,5.28,1.28,7.82,2.31,7.06,2.83,7.7,9.79,6.2,14.54-1.21,3.81-4.26,5.61-7.82,6.66-2.37.7-4.82.83-7.86.8h0Z"/>
    <path class="cls-6" d="M51.02.04c4.52.03,4.84.58,3.52,4.94-4.67,15.41-9.48,30.77-14.39,46.09-.5,1.55-1.01,3.11-1.57,4.63-.55,1.47-1.59,2.45-3.14,2.73-1.65.3-3.34.32-4.99.08-1.79-.25-2.25-1.18-1.65-3.23,1.42-4.92,2.81-9.84,4.33-14.74,3.69-11.88,7.43-23.74,11.16-35.61C45.6.72,46.59,0,51.02.04h0Z"/>
    <path class="cls-4" d="M261.79,24.62c3.21-4.08,7.11-6.25,11.71-7.16,1.18-.24,2.43-.54,3.56.23,1.37.94,2.04,2.28,1.72,3.93-.33,1.69-1.43,2.78-3.12,3.12-.98.2-1.99.25-2.97.42-6.69,1.18-10.33,5.39-10.5,12.32-.1,4.45-.02,8.91-.03,13.37-.01,3.19-1.62,4.73-4.93,4.73-3.53,0-5.16-1.44-5.17-4.64-.01-9.76-.01-19.52,0-29.27,0-3.03,1.71-4.62,4.9-4.61,3.12,0,4.83,1.66,4.84,4.71,0,.82,0,1.64,0,2.86h0Z"/>
    <path class="cls-4" d="M85.76,35.1c0-5.69-.01-11.38,0-17.07,0-2.39.85-3.28,3.19-3.36,1.39-.05,2.78-.04,4.17.03,1.61.08,2.57.96,2.75,2.61.07.61.11,1.24.11,1.85.01,10.76.01,21.53.01,32.29,0,.56-.02,1.13-.11,1.68-.35,2.18-1.13,2.84-3.38,2.87-1.06.01-2.11,0-3.17,0-2.81-.04-3.55-.75-3.56-3.66-.03-5.75-.01-11.5-.01-17.24Z"/>
    <path class="cls-6" d="M15.87,47.39c-4.21-2.17-8.43-4.35-12.65-6.49-2.17-1.1-3.54-2.55-3.16-5.29.24-1.72.14-3.5.02-5.24-.11-1.59.61-2.6,1.86-3.28,6.25-3.31,12.25-6.51,18.28-9.44,2.24-1.06,3.53-.21,3.67,2.3.21,3.85.1,5.68-4.33,7.72-3.39,1.56-6.69,3.33-10.03,5.03-.46.23-1.27.24-1.2.93.06.58.82.67,1.31.92,3.78,1.93,7.55,3.86,11.34,5.77,1.99,1,2.93,2.52,2.94,4.84.03,5.17-.73,5.72-5.3,3.53-.45-.22-.91-.41-1.37-.61-.42-.31-.94-.39-1.37-.68h0Z"/>
    <path class="cls-4" d="M166.24,35.25c0,5.69.03,11.38,0,17.07-.02,2.79-.81,3.56-3.58,3.77-5.78.44-6.52-.22-6.53-5.98-.02-10.54-.02-21.07,0-31.61,0-3.13.65-3.77,3.7-3.85,1.17-.03,2.34-.03,3.5.04,2.04.14,2.81.91,2.82,2.97.04,5.86.01,11.72.01,17.58h.09,0Z"/>
    <path class="cls-6" d="M368.11,35.55c-4.18-1.95-8.39-3.86-12.55-5.85-2.72-1.3-4.11-4.96-3.1-7.8.18-.51.48-.74.98-.75,2.05,0,4.07-.16,6.02.89,4.46,2.42,9.01,4.67,13.49,7.05,2.75,1.46,4.34,3.61,4.28,7.01-.05,3.35-1.57,5.55-4.36,7-4.4,2.28-8.84,4.5-13.26,6.75-2.07,1.05-4.27.42-6.41.53-.4.02-.56-.31-.57-.69-.07-3.66-.4-5.69,3.48-7.57,3.76-1.82,7.5-3.68,11.24-5.53.33-.29,1.29-.11.77-1.05h0Z"/>
    <path class="cls-2" d="M161.54,8.39c-1.05,0-2.11.03-3.16-.01-1.38-.06-2.1-.83-1.8-2.21C157.54,1.77,158.8.04,163.06,0c4.87-.04,5.43.65,4,5.35-.63,2.07-2.47,3.09-5.52,3.03h0Z"/>
    <path class="cls-1" d="M368.11,35.55c.25.08.6.15.46.51-.21.58-.75.53-1.23.54.25-.36.8-.48.77-1.05h0Z"/>
    <path class="cls-3" d="M15.87,47.39c.57,0,1.06.16,1.37.68-.57.02-1.05-.18-1.37-.68Z"/>
    <path class="cls-5" d="M223.62,31.87c-1.29-2.29,2.73-9.23,8.25-9.58,5.95-.38,10.81,7.09,9.63,9.4-.2.4-.71.89-8.06,1.03-6.16.12-9.25.16-9.82-.85Z"/>
    <path class="cls-5" d="M324.69,31.84c-1.29-2.29,2.73-9.23,8.25-9.58,5.95-.38,10.81,7.09,9.63,9.4-.2.4-.71.89-8.06,1.03-6.16.12-9.25.16-9.82-.85Z"/>
  </g>
</svg>