<?xml version="1.0" encoding="UTF-8"?>
<svg id="Layer_2" data-name="Layer 2" xmlns="http://www.w3.org/2000/svg" viewBox="0 0 1152 236">
  <defs>
    <style>
      .cls-1 {
        fill: #6d64d0;
      }

      .cls-1, .cls-2, .cls-3, .cls-4, .cls-5, .cls-6 {
        stroke-width: 0px;
      }

      .cls-2 {
        fill: #191f4b;
      }

      .cls-3 {
        fill: #6b5cfe;
      }

      .cls-4 {
        fill: #c7c3eb;
      }

      .cls-5 {
        fill: #181e4b;
      }

      .cls-6 {
        fill: #fefefe;
      }
    </style>
  </defs>
  <g id="Layer_1-2" data-name="Layer 1">
    <g>
      <path class="cls-6" d="M576.24.14C766.5.14,956.77.16,1147.04,0c4.56,0,4.97,1.35,4.96,5.25-.12,75.4-.1,150.8-.03,226.21,0,3.14-.06,4.54-4.14,4.54-381.2-.14-762.4-.14-1143.59,0-3.94,0-4.2-1.22-4.2-4.49C.14,155.77.15,80.04,0,4.3,0,.48,1.06.06,4.44.06c190.6.09,381.2.08,571.8.08Z"/>
      <path class="cls-5" d="M459.03,82.72c-2.77,26.8-5.16,54.82-8.98,82.68-.38,2.78-1.21,5.53-2.1,8.21-5.48,16.51-24.41,23.67-39.51,14.85-7.98-4.67-10.55-12.84-11.6-21.14-2.24-17.82-3.76-35.73-5.58-53.61-.07-.66,0-1.34-.14-1.99-.21-1.02.33-2.71-1.42-2.62-1.49.08-1.42,1.62-1.52,2.75-.79,8.78-1.48,17.57-2.35,26.35-1.1,11.09-1.66,22.26-4.08,33.17-1.75,7.88-5.08,15.13-13.23,18.2-12.07,4.55-30.59,3-36.5-14.21-3.67-10.7-4.32-21.85-5.52-32.9-2.2-20.18-4.06-40.39-6.11-60.58-.96-9.45,1.78-12.6,11.22-12.7,11.83-.14,14.7,2.26,15.93,14.18,2.45,23.66,4.69,47.35,7.12,71.01.25,2.46-.42,6.44,3.01,6.51,3.96.08,3.05-4.13,3.32-6.66,2.06-19.69,3.91-39.41,5.91-59.11.37-3.63.93-7.26,1.75-10.82,1.7-7.4,5.9-12.77,13.64-14.25,8.74-1.67,17.48-1.92,24.08,5.55,4.12,4.66,5.28,10.61,5.87,16.66,2.04,20.87,4.13,41.73,6.2,62.59.1.99.25,1.98.4,2.97.23,1.54.63,3.11,2.5,3.23,1.89.12,2.56-1.32,2.79-2.9.63-4.44,1.3-8.87,1.75-13.33,2.12-21.02,4.14-42.06,6.28-63.08,1.14-11.26,13.86-17.13,23.51-10.98,4.23,2.69,3.2,6.89,3.36,11.98Z"/>
      <path class="cls-3" d="M599.58,160.42c6.04-20.93,11.76-40.69,17.46-60.46,5.38-18.67,10.67-37.35,16.12-56,3.31-11.34,15.65-17.18,26.78-12.85,4.78,1.86,6.58,6.54,4.61,12.53-4.46,13.56-9.01,27.09-13.53,40.63-10.25,30.71-20.5,61.42-30.77,92.12-3.24,9.7-8.68,13.57-18.91,13.59-1.67,0-3.33,0-5,0-8.65-.06-14.67-4.03-17.42-12.21-15.1-45.02-30.09-90.07-45.07-135.12-1.8-5.43.31-10.33,5.34-11.56,6.04-1.47,12.24-1.58,18.05,1.25,4.56,2.22,7.42,5.83,8.84,10.84,10.54,37.23,21.19,74.44,31.82,111.65.41,1.43.86,2.85,1.69,5.59Z"/>
      <path class="cls-5" d="M1013.68,141.68c-9.49,0-18.99.1-28.48-.06-2.95-.05-3.59.9-3.35,3.74,1.24,14.53,10.49,23.96,25.29,25.61,9.21,1.02,18.25.18,27.23-1.99,7.45-1.8,11.72-.18,13.26,4.78,1.74,5.65-2.22,13.35-8.3,15.17-4.27,1.28-8.75,2.04-13.2,2.49-11.46,1.18-22.91,1.38-34.24-1.37-20.4-4.95-33.15-17.57-37.63-38.07-3.1-14.18-2.77-28.46,1.02-42.48,5.82-21.51,21.78-33.6,45.94-35.24,6.18-.42,12.34-.07,18.38,1.23,20.45,4.37,32.68,18.86,35.29,41.63.38,3.3.81,6.61.93,9.93.35,9.26-4.27,14.21-13.66,14.6-4.16.17-8.33.04-12.49.04-5.33,0-10.66,0-15.99,0Z"/>
      <path class="cls-5" d="M711.83,141.68c-9.49,0-18.99.1-28.48-.06-2.97-.05-3.62.96-3.35,3.77,1.42,14.65,10.57,23.95,25.32,25.59,9.21,1.02,18.26.18,27.24-2.01,7.21-1.75,11.84-.06,13.28,4.77,1.68,5.64-2.28,13.39-8.31,15.22-4.27,1.29-8.77,1.99-13.21,2.45-11.46,1.19-22.9,1.4-34.24-1.35-20.2-4.9-32.87-17.29-37.46-37.61-3.21-14.19-2.97-28.47.74-42.49,5.83-22.01,21.79-34.14,46.09-35.71,6.35-.41,12.67-.05,18.87,1.34,19.93,4.47,31.53,18.12,34.64,40.58.46,3.29.84,6.61.97,9.92.41,10.89-4.03,15.46-15.09,15.56-8.99.08-17.99.02-26.98.02Z"/>
      <path class="cls-5" d="M248.29,84.83c.04,13.13-2.27,25.52-11.5,35.65-4.35,4.77-9.69,8.22-15.81,10.11-4.23,1.31-4.13,3.07-2,6.27,9.42,14.1,18.77,28.25,28.04,42.45,6.33,9.69,5.29,11.7-6.21,12.22-3.65.17-7.32-.14-10.98-.12-8.28.05-14.23-3.94-18.63-10.61-9.35-14.15-18.72-28.28-27.94-42.52-1.64-2.53-3.45-3.69-6.49-3.54-3.15.16-6.32-.22-9.48-.25-3.82-.03-5.78-2.05-5.13-5.65,1.3-7.21,3.62-14.17,6.69-20.82,1.17-2.53,3.65-3.16,6.32-3.19,6.66-.07,13.33-.03,19.98-.37,16.3-.81,22.55-8.53,20.3-24.77-1.19-8.56-5.59-13.11-14.15-14.23-3.95-.52-7.97-.51-11.95-.9-4.27-.42-6.06-2.67-4.85-6.77,1.98-6.69,4.34-13.27,6.6-19.87.64-1.87,1.98-3.08,4.09-3.08,16.47-.02,32.03,2.68,43.31,16.2,8.13,9.74,9.75,21.59,9.79,33.79Z"/>
      <path class="cls-5" d="M895.28,192.17c-7.76.11-17.13-1.24-26.44-3.2-5.76-1.22-9.44-4.57-11.14-10.16-2.53-8.3,2.33-13.75,10.76-11.7,6.16,1.49,12.33,2.73,18.62,3.4,5.83.62,11.64.63,17.39-.65,5.97-1.32,9.43-4.67,10.07-9.64.68-5.21-1.99-9.63-7.38-12.39-5.84-2.99-12.3-3.99-18.52-5.72-5.94-1.65-11.71-3.72-17.16-6.62-12.75-6.79-18.16-17.45-16.81-31.7,1.35-14.27,10.07-22.53,22.95-26.45,17.67-5.38,35.61-3.59,53.37-.06,5.88,1.17,9.92,8.39,9.03,14.41-.76,5.13-5.15,7.89-10.73,6.69-11.28-2.43-22.63-3.97-34.17-2.3-6.58.95-10.5,4.27-11.11,9.04-.71,5.5,2.16,10.18,8.21,12.82,2.57,1.12,5.32,1.92,8.06,2.53,7.95,1.78,15.81,3.79,23.41,6.8,21.12,8.36,23.05,28.89,18.54,42.89-3.62,11.24-12.76,16.56-23.41,19.66-7.08,2.06-14.41,2.44-23.53,2.35Z"/>
      <path class="cls-3" d="M165.32,26.13c13.53.1,14.49,1.7,10.53,14.58-13.97,45.45-28.37,90.76-43.05,135.98-1.49,4.58-3.01,9.16-4.71,13.67-1.64,4.33-4.75,7.22-9.41,8.06-4.95.89-9.98.93-14.94.24-5.37-.75-6.73-3.48-4.95-9.53,4.25-14.51,8.42-29.04,12.96-43.47,11.03-35.05,22.23-70.04,33.38-105.05,3.96-12.45,6.94-14.56,20.19-14.47Z"/>
      <path class="cls-5" d="M795.98,98.66c9.61-12.04,21.29-18.43,35.05-21.13,3.54-.7,7.26-1.6,10.64.68,4.1,2.77,6.11,6.73,5.13,11.58-1,4.98-4.28,8.2-9.35,9.21-2.93.59-5.95.74-8.9,1.25-20.03,3.49-30.92,15.9-31.41,36.35-.31,13.14-.07,26.29-.1,39.43-.03,9.4-4.85,13.94-14.75,13.95-10.57.01-15.45-4.24-15.46-13.69-.04-28.79-.03-57.57,0-86.36.01-8.95,5.12-13.62,14.67-13.6,9.35.02,14.44,4.9,14.48,13.88.01,2.42,0,4.83,0,8.43Z"/>
      <path class="cls-5" d="M269.28,129.58c0-16.79-.03-33.58.01-50.37.02-7.04,2.53-9.67,9.54-9.91,4.15-.14,8.32-.11,12.48.1,4.82.24,7.69,2.83,8.23,7.71.2,1.81.32,3.65.32,5.47.03,31.75.04,63.51.03,95.26,0,1.66-.07,3.33-.34,4.96-1.04,6.44-3.37,8.38-10.11,8.47-3.16.04-6.32.02-9.48-.02-8.42-.12-10.61-2.22-10.65-10.8-.09-16.96-.03-33.92-.03-50.87Z"/>
      <path class="cls-3" d="M60.15,165.83c-12.61-6.39-25.21-12.82-37.85-19.15-6.49-3.25-10.59-7.52-9.46-15.61.71-5.06.41-10.32.05-15.46-.33-4.69,1.83-7.66,5.57-9.68,18.01-9.72,36.15-19.19,54.7-27.85,6.69-3.12,10.57-.62,10.97,6.78.63,11.36.29,16.75-12.97,22.77-10.15,4.61-20.03,9.83-30,14.83-1.38.69-3.81.71-3.59,2.74.19,1.7,2.45,1.99,3.91,2.72,11.3,5.69,22.59,11.39,33.92,17.01,5.96,2.96,8.77,7.44,8.81,14.29.08,15.26-2.17,16.88-15.86,10.4-1.35-.64-2.73-1.2-4.1-1.79-1.25-.9-2.82-1.16-4.09-2.01Z"/>
      <path class="cls-5" d="M510.08,130.01c0,16.79.08,33.57-.03,50.36-.05,8.23-2.41,10.51-10.71,11.13-17.3,1.3-19.51-.64-19.53-17.63-.05-31.08-.07-62.16,0-93.24.02-9.24,1.95-11.13,11.06-11.37,3.49-.09,7-.1,10.48.13,6.1.4,8.41,2.68,8.45,8.76.11,17.28.04,34.57.04,51.85.09,0,.17,0,.26,0Z"/>
      <path class="cls-3" d="M1114.12,130.91c-12.52-5.74-25.1-11.38-37.55-17.26-8.13-3.84-12.29-14.63-9.29-23,.53-1.49,1.44-2.19,2.92-2.2,6.13-.01,12.18-.48,18.01,2.63,13.35,7.14,26.96,13.77,40.37,20.81,8.23,4.32,12.98,10.66,12.82,20.67-.16,9.89-4.69,16.37-13.05,20.64-13.18,6.73-26.46,13.27-39.69,19.92-6.18,3.11-12.76,1.23-19.17,1.56-1.19.06-1.68-.92-1.71-2.03-.21-10.8-1.21-16.8,10.4-22.32,11.25-5.36,22.43-10.87,33.64-16.32.99-.86,3.87-.33,2.3-3.09Z"/>
      <path class="cls-2" d="M496.02,50.77c-3.15,0-6.31.1-9.45-.03-4.12-.17-6.3-2.46-5.4-6.52,2.88-12.96,6.65-18.09,19.39-18.19,14.58-.11,16.25,1.93,11.97,15.78q-2.84,9.18-16.51,8.95Z"/>
      <path class="cls-1" d="M1114.12,130.91c.76.24,1.79.44,1.39,1.51-.63,1.7-2.24,1.56-3.69,1.59.74-1.05,2.39-1.43,2.3-3.09Z"/>
      <path class="cls-4" d="M60.15,165.83c1.7,0,3.16.46,4.09,2.01-1.72.06-3.13-.54-4.09-2.01Z"/>
      <path class="cls-6" d="M1004.66,122.48c-6.49,0-12.98-.07-19.47.04-2.52.04-3.68-.61-3.32-3.4,1.99-15.24,8.82-26.18,27.98-24.26,11.24,1.13,20.65,14.67,18.17,25.67-.57,2.51-2.37,1.91-3.89,1.93-6.49.06-12.98.03-19.47.03Z"/>
      <path class="cls-6" d="M702.98,122.48c-6.48,0-12.97-.03-19.45.02-2.28.02-3.92-.29-3.52-3.26,1.99-14.82,8.5-26.33,27.87-24.4,10.66,1.06,16.83,8.73,18.16,21.51.48,4.67-.5,6.62-5.61,6.23-5.79-.44-11.63-.1-17.45-.1Z"/>
    </g>
  </g>
</svg>