<svg xmlns="http://www.w3.org/2000/svg" viewBox="0 0 24 24" width="40" height="40">
    <defs>
        <linearGradient id="comment-gradient" x1="0%" y1="0%" x2="100%" y2="0%">
            <stop offset="0%" stop-color="#FE654F" />
            <stop offset="100%" stop-color="#FF2404" />
        </linearGradient>
    </defs>
    <path d="M12,2A10,10,0,0,0,2,12a9.89,9.89,0,0,0,2.26,6.33l-2,2a1,1,0,0,0-.21,1.09A1,1,0,0,0,3,22h9A10,10,0,0,0,12,2Zm0,18H5.41l.93-.93a1,1,0,0,0,0-1.41A8,8,0,1,1,12,20Z" fill="url(#comment-gradient)" />
</svg>
