<svg width="26" height="23" viewBox="0 0 26 23" fill="none" xmlns="http://www.w3.org/2000/svg">
<path d="M23.2516 2.69186C21.9266 1.36337 20.1701 0.552532 18.2995 0.40582C16.429 0.259107 14.5676 0.78619 13.0516 1.89186C11.4612 0.708904 9.4816 0.172496 7.51152 0.390654C5.54143 0.608811 3.72716 1.56533 2.43408 3.06759C1.141 4.56985 0.465142 6.50626 0.542615 8.48687C0.620089 10.4675 1.44514 12.3452 2.85161 13.7419L10.6141 21.5169C11.2641 22.1566 12.1396 22.5151 13.0516 22.5151C13.9636 22.5151 14.8391 22.1566 15.4891 21.5169L23.2516 13.7419C24.7111 12.2734 25.5303 10.2872 25.5303 8.21686C25.5303 6.14652 24.7111 4.16027 23.2516 2.69186ZM3.54248 4.39075L13.7266 19.7794C13.6383 19.8685 13.5331 19.9394 13.4173 19.9877C13.3014 20.036 13.1771 20.0609 13.0516 20.0609C12.9261 20.0609 12.8018 20.036 12.6859 19.9877C12.5701 19.9394 12.4649 19.8685 12.3766 19.7794L12.5515 10.4419C11.5712 9.43983 24.0303 11.417 24.0303 10.0151C24.0303 8.6133 8.57121 9.48894 9.55151 8.48687C10.5505 7.50061 16.6265 8.01514 18.0303 8.01514C19.4341 8.01514 11.1152 3.49309 12.1141 4.47936C12.2303 4.59652 12.3686 4.68951 12.5209 4.75297C12.6732 4.81643 12.8366 4.8491 13.0016 4.8491C13.1666 4.8491 13.33 4.81643 13.4823 4.75297C13.6347 4.68951 13.7729 4.59652 13.8891 4.47936C14.8881 3.49309 8.14773 6 9.55151 6C10.9553 6 3.54354 12.4045 4.54248 13.3907C5.53625 14.3797 12.6672 19.6133 12.6859 21.0151C12.7046 22.417 22.4562 10.9643 21.4891 11.9794L3.54248 4.39075Z" fill="url(#paint0_linear_58_9)"/>
<defs>
<linearGradient id="paint0_linear_58_9" x1="1.48511" y1="11.9872" x2="26.4788" y2="11.9872" gradientUnits="userSpaceOnUse">
<stop stop-color="#FE654F"/>
<stop offset="1" stop-color="#FF2202"/>
</linearGradient>
</defs>
</svg>
